<svg version="1.1" id="Layer_1" xmlns="http://www.w3.org/2000/svg" xmlns:xlink="http://www.w3.org/1999/xlink" x="0px" y="0px" viewBox="0 0 100 100" xml:space="preserve"><desc>Copyright Opto 22</desc> 
<g>
<g id="frame">
	<rect fill="none" width="100" height="100"></rect>
</g>
<g id="shape">
	<polygon fill="#1A1A1A" points="99.845,91.667 0.155,91.667 50,5.333 	"></polygon>
</g>
<g id="light">
	<polygon fill="#FCEE21" points="10.548,85.667 89.452,85.667 50,17.333 	"></polygon>
</g>
<g id="dark">
	<path fill="#1A1A1A" d="M40.941,83.25c0,0-11.333-6.007-9.743-20.323c2.386,5.832,3.38,2.618,4.175,5.799
		c0.793-6.059-3.207-10.726-0.398-16.337c3.181,2.916,3.877,7.158,3.877,7.158c0.994-11.83,7.556-6.76,6.561-20.38
		c3.726,4.314,7.217,9.264,8.459,14.365c0,0-0.506-2.634,0.588-5.218c1.094-2.585,2.684-2.883,1.591-5.17
		c4.474,5.667,5.865,9.246,5.368,15.31c1.292-3.877,3.281-5.667,1.988-8.152c4.175,5.766-1.19,9.689,0.5,13.566
		s1.091,5.721-0.301,7.908c1.789-1.789,4.673-4.374,3.778-7.357c4.614,5.915-7.52,15.03-3.281,14.515
		c3.562-0.433-1.69,4.317-1.69,4.317L40.941,83.25L40.941,83.25z"></path>
</g>
<g id="hlight">
	<path fill="#FCEE21" d="M54.642,60.027c0,0,2.559-2.047,2.559-7.166c5.886,10.749,8.19,18.427-0.512,30.712h-13.18
		c0,0-11.517-10.237-2.687-24.825c0,0-1.024,6.91,2.559,10.493c0,0-0.256-4.351,1.536-6.654s4.351-6.654,1.024-12.285
		c0,0,11.133,6.91,9.853,16.38"></path>
</g>
</g>
</svg>